<?xml version="1.0" standalone="no"?>
<!DOCTYPE svg PUBLIC "-//W3C//DTD SVG 20010904//EN"
 "http://www.w3.org/TR/2001/REC-SVG-20010904/DTD/svg10.dtd">
<svg version="1.0" xmlns="http://www.w3.org/2000/svg"
 width="512.000000pt" height="512.000000pt" viewBox="0 0 512.000000 512.000000"
 preserveAspectRatio="xMidYMid meet">
<metadata>
Created by potrace 1.11, written by Peter Selinger 2001-2013
</metadata>
<g transform="translate(0.000000,512.000000) scale(0.100000,-0.100000)"
fill="#000000" stroke="none">
<path d="M2365 4734 c-35 -4 -190 -24 -220 -29 -91 -14 -343 -86 -420 -120
-211 -94 -318 -153 -458 -252 -253 -181 -451 -398 -619 -676 -26 -44 -48 -85
-48 -90 0 -6 -6 -18 -13 -26 -43 -52 -161 -375 -191 -526 -25 -122 -23 -110
-42 -280 -5 -43 -5 -343 0 -385 3 -19 7 -57 10 -85 55 -466 274 -914 620
-1268 41 -42 166 -151 263 -228 43 -33 213 -137 293 -178 211 -109 474 -193
675 -217 22 -3 51 -7 65 -11 42 -9 420 -11 490 -2 221 27 408 73 575 140 87
34 282 130 324 158 14 10 55 37 91 61 329 220 588 519 763 880 84 176 131 314
171 515 43 210 53 557 22 735 -3 14 -7 41 -10 60 -3 19 -10 60 -16 90 -6 30
-13 66 -16 79 -3 13 -25 83 -49 156 -237 723 -851 1281 -1590 1449 -60 13
-134 28 -164 31 -30 4 -63 9 -75 11 -25 6 -389 12 -431 8z m395 -743 c423 -63
837 -343 1037 -701 63 -111 70 -127 107 -218 81 -203 117 -474 91 -691 -33
-267 -140 -530 -304 -741 -58 -75 -213 -222 -297 -282 -190 -136 -451 -239
-669 -265 -111 -13 -386 -6 -435 11 -8 3 -31 7 -51 10 -20 3 -83 21 -140 40
-424 139 -739 430 -908 837 -84 200 -112 359 -106 599 5 220 34 350 121 545
10 22 20 47 23 55 13 33 98 169 149 238 68 91 179 205 257 262 33 25 62 47 65
50 4 5 22 17 105 67 143 88 392 172 555 189 36 3 66 8 68 9 8 7 265 -4 332
-14z"/>
</g>
</svg>
